# xmcd
#
# Track frame offsets: 
#        150
#        21580
#        49813
#        71117
#        91429
#        141451
#        160983
#        193633
#        243551
#        272971
#
# Disc length: 4149 seconds
#
# Revision: 0
# Processed by: cddbd v1.5.2PL0 Copyright (c) Steve Scherf et al.
# Submitted via: ExactAudioCopy v0.99pb5
#
DISCID=9e10330a
DTITLE=Eric Clapton  - God Hand Bless You - Disc 4 (05-18-01) Sunrise,
DTITLE=Florida
DYEAR=1900
DGENRE=
TTITLE0=I Want A Little Girl
TTITLE1=Don't Let Me Be Lonely Tonight
TTITLE2=Travelin' Light
TTITLE3=Hoochie Coochie Man
TTITLE4=Have You Ever Loved A Woman
TTITLE5=Cocaine
TTITLE6=Wonderful Tonight
TTITLE7=Layla
TTITLE8=Sunshine Of Your Love
TTITLE9=Somewhere Over The Rainbow
EXTD=
EXTT0=
EXTT1=
EXTT2=
EXTT3=
EXTT4=
EXTT5=
EXTT6=
EXTT7=
EXTT8=
EXTT9=
PLAYORDER=
